#usda 1.0
(
    defaultPrim = "root"
    metersPerUnit = 0.0254
    upAxis = "Z"
)

def Xform "root"
{
    def Mesh "gizmo"
    {
        float3[] extent = [(-4.3003683, -4.720403, -5.6714716), (4.8401423, 4.655173, -0.6317257)]
        int[] faceVertexCounts = [4, 4, 4, 4, 4, 4, 4, 4, 4, 4, 4, 4, 4, 4, 4, 4, 4, 4, 4, 4, 4, 4, 4, 4, 4, 4, 4, 4, 4, 4, 4, 4, 4, 4, 4, 4, 4, 4, 4, 4, 4, 4, 4, 4, 4, 4, 4, 4, 4, 4, 4, 4, 4, 4, 4, 4, 4, 4, 4, 4, 4, 4, 4, 4, 4, 4, 4, 4, 4, 4, 4, 4, 4, 4, 4, 4, 4, 4, 4, 4, 4, 4, 4, 4, 4, 4, 4, 4, 4, 4, 4, 4, 4, 4, 4, 4, 4, 4, 4, 4, 4, 4, 4, 4, 4, 4, 4, 4, 4, 4, 4, 4, 4, 4, 4, 4, 4, 4, 4, 4, 4, 4, 4, 4, 4, 4, 4, 24]
        int[] faceVertexIndices = [5, 6, 7, 4, 9, 10, 11, 8, 13, 14, 15, 12, 17, 18, 19, 16, 21, 22, 23, 20, 1, 2, 3, 0, 25, 26, 27, 24, 28, 29, 53, 52, 29, 30, 54, 53, 30, 31, 55, 54, 31, 32, 56, 55, 32, 33, 57, 56, 33, 34, 58, 57, 34, 35, 59, 58, 35, 36, 60, 59, 36, 37, 61, 60, 37, 38, 62, 61, 38, 39, 63, 62, 39, 40, 64, 63, 40, 41, 65, 64, 41, 42, 66, 65, 42, 43, 67, 66, 43, 44, 68, 67, 44, 45, 69, 68, 45, 46, 70, 69, 46, 47, 71, 70, 47, 48, 72, 71, 48, 49, 73, 72, 49, 50, 74, 73, 50, 51, 75, 74, 51, 28, 52, 75, 52, 53, 77, 76, 53, 54, 78, 77, 54, 55, 79, 78, 55, 56, 80, 79, 56, 57, 81, 80, 57, 58, 82, 81, 58, 59, 83, 82, 59, 60, 84, 83, 60, 61, 85, 84, 61, 62, 86, 85, 62, 63, 87, 86, 63, 64, 88, 87, 64, 65, 89, 88, 65, 66, 90, 89, 66, 67, 91, 90, 67, 68, 92, 91, 68, 69, 93, 92, 69, 70, 94, 93, 70, 71, 95, 94, 71, 72, 96, 95, 72, 73, 97, 96, 73, 74, 98, 97, 74, 75, 99, 98, 75, 52, 76, 99, 76, 77, 101, 100, 77, 78, 102, 101, 78, 79, 103, 102, 79, 80, 104, 103, 80, 81, 105, 104, 81, 82, 106, 105, 82, 83, 107, 106, 83, 84, 108, 107, 84, 85, 109, 108, 85, 86, 110, 109, 86, 87, 111, 110, 87, 88, 112, 111, 88, 89, 113, 112, 89, 90, 114, 113, 90, 91, 115, 114, 91, 92, 116, 115, 92, 93, 117, 116, 93, 94, 118, 117, 94, 95, 119, 118, 95, 96, 120, 119, 96, 97, 121, 120, 97, 98, 122, 121, 98, 99, 123, 122, 99, 76, 100, 123, 100, 101, 125, 124, 101, 102, 126, 125, 102, 103, 127, 126, 103, 104, 128, 127, 104, 105, 129, 128, 105, 106, 130, 129, 106, 107, 131, 130, 107, 108, 132, 131, 108, 109, 133, 132, 109, 110, 134, 133, 110, 111, 135, 134, 111, 112, 136, 135, 112, 113, 137, 136, 113, 114, 138, 137, 114, 115, 139, 138, 115, 116, 140, 139, 116, 117, 141, 140, 117, 118, 142, 141, 118, 119, 143, 142, 119, 120, 144, 143, 120, 121, 145, 144, 121, 122, 146, 145, 122, 123, 147, 146, 123, 100, 124, 147, 124, 125, 149, 148, 125, 126, 150, 149, 126, 127, 151, 150, 127, 128, 152, 151, 128, 129, 153, 152, 129, 130, 154, 153, 130, 131, 155, 154, 131, 132, 156, 155, 132, 133, 157, 156, 133, 134, 158, 157, 134, 135, 159, 158, 135, 136, 160, 159, 136, 137, 161, 160, 137, 138, 162, 161, 138, 139, 163, 162, 139, 140, 164, 163, 140, 141, 165, 164, 141, 142, 166, 165, 142, 143, 167, 166, 143, 144, 168, 167, 144, 145, 169, 168, 145, 146, 170, 169, 146, 147, 171, 170, 147, 124, 148, 171, 28, 51, 50, 49, 48, 47, 46, 45, 44, 43, 42, 41, 40, 39, 38, 37, 36, 35, 34, 33, 32, 31, 30, 29]
        point3f[] points = [(4.8401423, -0.03621077, -5.6714716), (4.8401423, -0.029019494, -5.6714716), (2.7866926, -0.029019494, -0.6317257), (2.7866926, -0.03621077, -0.6317257), (1.7525673, -2.1835942, -0.6317257), (1.7469449, -2.1880777, -0.6317257), (3.0272498, -3.7935295, -5.6714716), (3.0328722, -3.7890453, -5.6714716), (-0.5767136, -2.7184377, -0.6317257), (-0.58372456, -2.7168374, -0.6317257), (-1.0406601, -4.718803, -5.6714716), (-1.0336491, -4.720403, -5.6714716), (-2.447154, -1.2308017, -0.6317257), (-2.450274, -1.2243224, -0.6317257), (-4.3003683, -2.1152809, -5.6714716), (-4.2972484, -2.12176, -5.6714716), (-2.450274, 1.1590928, -0.6317257), (-2.447154, 1.1655719, -0.6317257), (-4.297248, 2.0565302, -5.6714716), (-4.3003683, 2.0500512, -5.6714716), (-0.58372474, 2.651607, -0.6317257), (-0.5767138, 2.6532073, -0.6317257), (-1.0336494, 4.655173, -5.6714716), (-1.0406604, 4.6535726, -5.6714716), (1.7469444, 2.1228478, -0.6317257), (1.7525668, 2.118364, -0.6317257), (3.0328717, 3.723816, -5.6714716), (3.0272493, 3.7283, -5.6714716), (3.9949307, -0.057912, -0.6317257), (3.8607802, 0.96106124, -0.6317257), (3.4674711, 1.910593, -0.6317257), (2.8418074, 2.725974, -0.6317257), (2.0264254, 3.3516388, -0.6317257), (1.076894, 3.7449474, -0.6317257), (0.05792101, 3.879098, -0.6317257), (-0.96105194, 3.7449474, -0.6317257), (-1.9105835, 3.3516388, -0.6317257), (-2.725965, 2.725975, -0.6317257), (-3.3516293, 1.910594, -0.6317257), (-3.7449389, 0.96106243, -0.6317257), (-3.8790894, -0.057910465, -0.6317257), (-3.7449393, -1.0768834, -0.6317257), (-3.3516307, -2.026415, -0.6317257), (-2.725967, -2.8417969, -0.6317257), (-1.9105854, -3.4674616, -0.6317257), (-0.96105385, -3.8607712, -0.6317257), (0.057918884, -3.9949217, -0.6317257), (1.0768919, -3.8607721, -0.6317257), (2.0264235, -3.4674635, -0.6317257), (2.8418055, -2.8418002, -0.6317257), (3.4674702, -2.0264192, -0.6317257), (3.8607793, -1.076888, -0.6317257), (3.9949307, -0.057912, -0.6317257), (3.8607802, 0.96106124, -0.6317257), (3.4674711, 1.910593, -0.6317257), (2.8418074, 2.725974, -0.6317257), (2.0264254, 3.3516388, -0.6317257), (1.076894, 3.7449474, -0.6317257), (0.05792101, 3.879098, -0.6317257), (-0.96105194, 3.7449474, -0.6317257), (-1.9105835, 3.3516388, -0.6317257), (-2.725965, 2.725975, -0.6317257), (-3.3516293, 1.910594, -0.6317257), (-3.7449389, 0.96106243, -0.6317257), (-3.8790894, -0.057910465, -0.6317257), (-3.7449393, -1.0768834, -0.6317257), (-3.3516307, -2.026415, -0.6317257), (-2.725967, -2.8417969, -0.6317257), (-1.9105854, -3.4674616, -0.6317257), (-0.96105385, -3.8607712, -0.6317257), (0.057918884, -3.9949217, -0.6317257), (1.0768919, -3.8607721, -0.6317257), (2.0264235, -3.4674635, -0.6317257), (2.8418055, -2.8418002, -0.6317257), (3.4674702, -2.0264192, -0.6317257), (3.8607793, -1.076888, -0.6317257), (3.9949307, -0.057912, -0.6317257), (3.8607802, 0.96106124, -0.6317257), (3.4674711, 1.910593, -0.6317257), (2.8418074, 2.725974, -0.6317257), (2.0264254, 3.3516388, -0.6317257), (1.076894, 3.7449474, -0.6317257), (0.05792101, 3.879098, -0.6317257), (-0.96105194, 3.7449474, -0.6317257), (-1.9105835, 3.3516388, -0.6317257), (-2.725965, 2.725975, -0.6317257), (-3.3516293, 1.910594, -0.6317257), (-3.7449389, 0.96106243, -0.6317257), (-3.8790894, -0.057910465, -0.6317257), (-3.7449393, -1.0768834, -0.6317257), (-3.3516307, -2.026415, -0.6317257), (-2.725967, -2.8417969, -0.6317257), (-1.9105854, -3.4674616, -0.6317257), (-0.96105385, -3.8607712, -0.6317257), (0.057918884, -3.9949217, -0.6317257), (1.0768919, -3.8607721, -0.6317257), (2.0264235, -3.4674635, -0.6317257), (2.8418055, -2.8418002, -0.6317257), (3.4674702, -2.0264192, -0.6317257), (3.8607793, -1.076888, -0.6317257), (3.9949307, -0.057912, -0.6317257), (3.8607802, 0.96106124, -0.6317257), (3.4674711, 1.910593, -0.6317257), (2.8418074, 2.725974, -0.6317257), (2.0264254, 3.3516388, -0.6317257), (1.076894, 3.7449474, -0.6317257), (0.05792101, 3.879098, -0.6317257), (-0.96105194, 3.7449474, -0.6317257), (-1.9105835, 3.3516388, -0.6317257), (-2.725965, 2.725975, -0.6317257), (-3.3516293, 1.910594, -0.6317257), (-3.7449389, 0.96106243, -0.6317257), (-3.8790894, -0.057910465, -0.6317257), (-3.7449393, -1.0768834, -0.6317257), (-3.3516307, -2.026415, -0.6317257), (-2.725967, -2.8417969, -0.6317257), (-1.9105854, -3.4674616, -0.6317257), (-0.96105385, -3.8607712, -0.6317257), (0.057918884, -3.9949217, -0.6317257), (1.0768919, -3.8607721, -0.6317257), (2.0264235, -3.4674635, -0.6317257), (2.8418055, -2.8418002, -0.6317257), (3.4674702, -2.0264192, -0.6317257), (3.8607793, -1.076888, -0.6317257), (3.9949307, -0.057912, -0.6317257), (3.8607802, 0.96106124, -0.6317257), (3.4674711, 1.910593, -0.6317257), (2.8418074, 2.725974, -0.6317257), (2.0264254, 3.3516388, -0.6317257), (1.076894, 3.7449474, -0.6317257), (0.05792101, 3.879098, -0.6317257), (-0.96105194, 3.7449474, -0.6317257), (-1.9105835, 3.3516388, -0.6317257), (-2.725965, 2.725975, -0.6317257), (-3.3516293, 1.910594, -0.6317257), (-3.7449389, 0.96106243, -0.6317257), (-3.8790894, -0.057910465, -0.6317257), (-3.7449393, -1.0768834, -0.6317257), (-3.3516307, -2.026415, -0.6317257), (-2.725967, -2.8417969, -0.6317257), (-1.9105854, -3.4674616, -0.6317257), (-0.96105385, -3.8607712, -0.6317257), (0.057918884, -3.9949217, -0.6317257), (1.0768919, -3.8607721, -0.6317257), (2.0264235, -3.4674635, -0.6317257), (2.8418055, -2.8418002, -0.6317257), (3.4674702, -2.0264192, -0.6317257), (3.8607793, -1.076888, -0.6317257), (3.9949307, -0.057912, -0.6317257), (3.8607802, 0.96106124, -0.6317257), (3.4674711, 1.910593, -0.6317257), (2.8418074, 2.725974, -0.6317257), (2.0264254, 3.3516388, -0.6317257), (1.076894, 3.7449474, -0.6317257), (0.05792101, 3.879098, -0.6317257), (-0.96105194, 3.7449474, -0.6317257), (-1.9105835, 3.3516388, -0.6317257), (-2.725965, 2.725975, -0.6317257), (-3.3516293, 1.910594, -0.6317257), (-3.7449389, 0.96106243, -0.6317257), (-3.8790894, -0.057910465, -0.6317257), (-3.7449393, -1.0768834, -0.6317257), (-3.3516307, -2.026415, -0.6317257), (-2.725967, -2.8417969, -0.6317257), (-1.9105854, -3.4674616, -0.6317257), (-0.96105385, -3.8607712, -0.6317257), (0.057918884, -3.9949217, -0.6317257), (1.0768919, -3.8607721, -0.6317257), (2.0264235, -3.4674635, -0.6317257), (2.8418055, -2.8418002, -0.6317257), (3.4674702, -2.0264192, -0.6317257), (3.8607793, -1.076888, -0.6317257)]
    }
}

