#usda 1.0
(
    defaultPrim = "root"
    metersPerUnit = 0.0254
    upAxis = "Z"
)

def Xform "root"
{
    def Mesh "gizmo"
    {
        float3[] extent = [(-3.8382986, -3.8382986, -3.937007), (3.8382986, 3.8382986, 3.937008)]
        int[] faceVertexCounts = [3, 3, 3, 3, 3, 3, 3, 3, 4, 4, 4, 4, 4, 4, 4, 4, 4, 4, 4, 4, 4, 4, 4, 4, 4, 4, 4, 4, 4, 4, 4, 4, 4, 4, 4, 4, 4, 4, 4, 4, 4, 4, 4, 4, 4, 4, 4, 4, 3, 3, 3, 3, 3, 3, 3, 3]
        int[] faceVertexIndices = [0, 2, 3, 0, 3, 4, 0, 4, 5, 0, 5, 6, 0, 6, 7, 0, 7, 8, 0, 8, 9, 0, 9, 2, 2, 10, 11, 3, 3, 11, 12, 4, 4, 12, 13, 5, 5, 13, 14, 6, 6, 14, 15, 7, 7, 15, 16, 8, 8, 16, 17, 9, 9, 17, 10, 2, 10, 18, 19, 11, 11, 19, 20, 12, 12, 20, 21, 13, 13, 21, 22, 14, 14, 22, 23, 15, 15, 23, 24, 16, 16, 24, 25, 17, 17, 25, 18, 10, 18, 26, 27, 19, 19, 27, 28, 20, 20, 28, 29, 21, 21, 29, 30, 22, 22, 30, 31, 23, 23, 31, 32, 24, 24, 32, 33, 25, 25, 33, 26, 18, 26, 34, 35, 27, 27, 35, 36, 28, 28, 36, 37, 29, 29, 37, 38, 30, 30, 38, 39, 31, 31, 39, 40, 32, 32, 40, 41, 33, 33, 41, 34, 26, 34, 42, 43, 35, 35, 43, 44, 36, 36, 44, 45, 37, 37, 45, 46, 38, 38, 46, 47, 39, 39, 47, 48, 40, 40, 48, 49, 41, 41, 49, 42, 34, 1, 43, 42, 1, 44, 43, 1, 45, 44, 1, 46, 45, 1, 47, 46, 1, 48, 47, 1, 49, 48, 1, 42, 49]
        point3f[] points = [(1.4772566e-7, -3.1482518e-8, -3.937007), (1.4772566e-7, -3.1482518e-8, 3.937008), (1.7082038, -3.1482518e-8, -3.5471208), (1.2078825, -1.2078825, -3.5471208), (7.3057706e-8, -1.7082038, -3.5471208), (-1.2078823, -1.2078825, -3.5471208), (-1.7082036, 1.1785339e-7, -3.5471208), (-1.207882, 1.2078824, -3.5471208), (1.6809578e-7, 1.7082036, -3.5471208), (1.2078829, 1.2078818, -3.5471208), (3.0780766, -3.1482518e-8, -2.4546835), (2.1765287, -2.1765287, -2.4546835), (1.3178635e-8, -3.0780766, -2.4546835), (-2.1765287, -2.1765287, -2.4546835), (-3.0780766, 2.3761149e-7, -2.4546835), (-2.1765285, 2.1765292, -2.4546835), (1.8443136e-7, 3.0780766, -2.4546835), (2.1765296, 2.176528, -2.4546835), (3.8382986, -3.1482518e-8, -0.8760663), (2.714087, -2.714087, -0.8760663), (-2.0051687e-8, -3.8382986, -0.8760663), (-2.714087, -2.714087, -0.8760663), (-3.8382986, 3.040722e-7, -0.8760663), (-2.7140865, 2.7140875, -0.8760663), (1.934969e-7, 3.8382986, -0.8760663), (2.714088, 2.714086, -0.8760663), (3.8382986, -3.1482518e-8, 0.87606716), (2.714087, -2.714087, 0.87606716), (-2.0051687e-8, -3.8382986, 0.87606716), (-2.714087, -2.714087, 0.87606716), (-3.8382986, 3.040722e-7, 0.87606716), (-2.7140865, 2.7140875, 0.87606716), (1.934969e-7, 3.8382986, 0.87606716), (2.714088, 2.714086, 0.87606716), (3.0780761, -3.1482518e-8, 2.4546852), (2.1765285, -2.1765285, 2.4546852), (1.3178692e-8, -3.0780761, 2.4546852), (-2.1765285, -2.1765285, 2.4546852), (-3.0780761, 2.3761143e-7, 2.4546852), (-2.176528, 2.176529, 2.4546852), (1.8443134e-7, 3.0780761, 2.4546852), (2.1765292, 2.1765277, 2.4546852), (1.708204, -3.1482518e-8, 3.5471218), (1.2078826, -1.2078826, 3.5471218), (7.305769e-8, -1.708204, 3.5471218), (-1.2078824, -1.2078826, 3.5471218), (-1.7082038, 1.1785342e-7, 3.5471218), (-1.2078822, 1.2078826, 3.5471218), (1.6809578e-7, 1.7082038, 3.5471218), (1.207883, 1.207882, 3.5471218)]
    }
}

