#usda 1.0
(
    defaultPrim = "root"
    upAxis = "Z"
)

def Xform "root"
{
    def Mesh "gizmo"
    {
        float3[] extent = [(-3.9369998, -3.9370003, -6.819084), (3.9369998, 3.9369993, 0)]
        int[] faceVertexCounts = [3, 3, 3, 3, 3, 3, 3, 3, 3, 3, 3, 3, 3, 3, 3, 3]
        int[] faceVertexIndices = [2, 1, 0, 3, 2, 0, 4, 3, 0, 5, 4, 0, 6, 5, 0, 7, 6, 0, 8, 7, 0, 9, 8, 0, 10, 9, 0, 11, 10, 0, 12, 11, 0, 13, 12, 0, 14, 13, 0, 15, 14, 0, 16, 15, 0, 1, 16, 0]
        point3f[] points = [(-3.4012515e-8, -3.571314e-7, 0), (3.9369998, -3.571314e-7, -6.819084), (3.6373134, -1.5066252, -6.819084), (2.7838793, -2.7838793, -6.819084), (1.5066247, -3.6373138, -6.819084), (-2.0610425e-7, -3.9370003, -6.819084), (-1.5066249, -3.6373138, -6.819084), (-2.7838793, -2.7838793, -6.819084), (-3.6373134, -1.5066252, -6.819084), (-3.9369998, -9.516018e-7, -6.819084), (-3.6373138, 1.5066233, -6.819084), (-2.7838802, 2.7838783, -6.819084), (-1.5066252, 3.637313, -6.819084), (1.2935741e-8, 3.9369993, -6.819084), (1.5066252, 3.637313, -6.819084), (2.7838802, 2.7838778, -6.819084), (3.6373143, 1.5066223, -6.819084)]
    }
}